<svg xmlns="http://www.w3.org/2000/svg" width="400" height="430.928"><g fill-rule="evenodd"><path d="M182.304 95.06c-8.556 1.077-16.42 6.175-20.658 13.394-.366.623-11.845 24.283-25.509 52.577-13.664 28.294-25.578 52.896-26.476 54.672-.898 1.776-1.902 4.024-2.231 4.996-4.488 13.278 1.558 27.828 14.108 33.952 6.165 3.008 4.137 2.872 42.74 2.874l32.629.001v9.905c0 12.482.265 15.064 2.088 20.351 8.8 25.521 38.65 27.71 50.089 3.674 3.117-6.549 3.695-10.489 3.698-25.219l.002-8.711 1.082-.001c14.243-.016 26.743-13.01 26.751-27.808.009-14.807-12.366-27.861-26.411-27.861h-1.391l-.086-13.454c-.084-12.978-.103-13.527-.545-15.515-6.608-29.731-48.253-29.652-54.794.103-.289 1.313-.359 3.595-.463 15.154l-.123 13.609-9.124.053c-5.018.03-9.123-.01-9.123-.089s6.928-14.485 15.396-32.013c18.972-39.269 17.485-36.14 18.191-38.303 6.259-19.181-9.894-38.852-29.84-36.341" fill="#fbfbfb"/><path d="M99.742 35.834L0 71.648v.582c0 1.106 29.516 264.162 29.655 264.293.24.228 169.391 94.047 169.933 94.254.642.245 170.213-93.685 170.659-94.534.217-.411 29.87-264.477 29.711-264.579C399.607 71.437 200.399.109 200.011.071 199.72.043 154.923 16.02 99.742 35.834m88.093 59.017c14.905 1.309 25.644 12.954 25.664 27.829.009 7.315 1.153 4.516-18.281 44.743-8.957 18.541-16.334 33.827-16.393 33.969-.084.204 1.77.257 8.871.257h8.978l.076-13.247c.088-15.295.178-16.136 2.251-21.027 9.369-22.11 41.038-22.671 51.208-.909 2.432 5.206 2.575 6.426 2.575 22.087v13.034l2.01.125c15.552.961 27.525 15.198 25.84 30.724-1.481 13.646-11.716 23.766-25.423 25.136l-2.427.243-.004 10.319c-.005 13.872-.45 16.814-3.535 23.405-10.558 22.55-38.343 22.489-48.953-.107-3.002-6.396-3.587-10.378-3.589-24.473l-.002-9.227-32.113-.001c-33.093 0-34.16-.024-37.423-.844-12.811-3.216-21.273-14.034-21.273-27.196 0-5.572.633-7.938 3.887-14.536 1.612-3.269 28.724-59.354 50.158-103.758 4.658-9.652 13.171-15.72 23.206-16.543 1.05-.086 2.001-.168 2.115-.184.113-.015 1.273.066 2.577.181" fill="#cf2034"/><path d="M187.68 94.987c.199.052.524.052.722 0 .199-.051.036-.094-.361-.094-.397 0-.559.043-.361.094m-22.018 8.157l-1.023 1.083 1.083-1.023c1.006-.951 1.177-1.142 1.023-1.142-.033 0-.52.487-1.083 1.082m47.813 19.64c0 1.02.034 1.464.078.985a13.51 13.51 0 00.001-1.856c-.043-.542-.078-.15-.079.871m-30.434 79.02c2.523.033 6.652.033 9.175 0 2.524-.033.459-.06-4.587-.06-5.047 0-7.111.027-4.588.06m70.106-.009c.256.05.627.048.824-.004.198-.051-.012-.092-.466-.09-.453.003-.615.045-.358.094m-147.304 27.896c0 .85.036 1.198.08.773a8.87 8.87 0 000-1.546c-.044-.426-.08-.078-.08.773m43.075 27.989c8.817.03 23.244.03 32.061 0 8.817-.029 1.603-.054-16.031-.054s-24.847.025-16.03.054m103.711 19.124c.003.454.045.615.094.359.049-.257.048-.628-.004-.825-.052-.197-.092.013-.09.466m-46.443 23.261c0 .035.301.337.67.67l.67.605-.606-.67c-.564-.625-.734-.765-.734-.605m17.892 8.334a10.3 10.3 0 001.649-.002c.422-.044.026-.08-.882-.079-.907.001-1.252.037-.767.081" fill="#ec9585"/><path d="M244.527 158.608c.506.539.947.98.98.98.155 0-.009-.185-.919-1.04l-.98-.919.919.979m-47.729 30.773c0 6.805.026 9.558.058 6.12a822.8 822.8 0 000-12.371c-.032-3.366-.058-.553-.058 6.251m75.161 19.962c0 .035.301.337.67.67l.67.606-.606-.671c-.564-.624-.734-.764-.734-.605m-75.163 58.08c0 5.386.027 7.59.059 4.897a484.47 484.47 0 000-9.794c-.032-2.694-.059-.49-.059 4.897" fill="#df7667"/><path d="M280.671 229.588c.002.453.044.615.093.358.05-.256.048-.628-.004-.825-.051-.197-.092.013-.089.467" fill="#dc8c84"/><path d="M205.361 102.99c.385.397.746.721.802.721.057 0-.211-.324-.596-.721-.385-.397-.746-.722-.803-.722-.056 0 .212.325.597.722m17.99 47.461c.198.052.523.052.721 0 .199-.051.036-.094-.361-.094-.397 0-.559.043-.36.094m2.167.004c.256.049.627.048.825-.004.197-.052-.013-.092-.467-.09-.453.003-.615.045-.358.094m17.162 150.267c-.5.51-.864.927-.807.927.057 0 .513-.417 1.014-.927.5-.511.864-.928.807-.928-.057 0-.513.417-1.014.928" fill="#d2544c"/><path d="M113.918 249.485c.673.68 1.27 1.237 1.327 1.237.057 0-.448-.557-1.121-1.237-.674-.681-1.271-1.238-1.328-1.238-.056 0 .448.557 1.122 1.238" fill="#e43b3f"/><path d="M272.466 249.536l-1.023 1.083 1.083-1.024c1.006-.95 1.177-1.141 1.023-1.141-.033 0-.52.487-1.083 1.082" fill="#cc343c"/></g></svg>