<svg width="107" height="107" viewBox="0 0 107 44" xmlns="http://www.w3.org/2000/svg"><g fill="none" fill-rule="evenodd"><path fill="#F1351C" d="M52.063 8.787L21.07 5.034l1.365 5.341-.064-.014.064.247L11.75 8.301.9 11.437l4.26 10.587.398.97-.007.001.007.018L0 24.863l9.322 16.1 2.185-2.184 9.837.606L22.436 44l7.77-3.156 1.822-3.4 13.843.12 1.579 5.344 26.954-5.1 14.1 5.377-2.442-5.55.138-.005-.138-.308 3.279-.122 4.37-11.292 6.133-3.875 6.632-4.278-9-1.56.051-.11-.051-.01 4.353-9.603-22.081-1.448-6.8 4.492-11.535-.485.043-.263-.043-.002L62.788.11z"/><path d="M32.872 19.813l-3.453.48-1.692.127-.601-5.936 1.68-.252c1.63-.182 3.756-.051 3.756-.051s1.955.036 2.512 2.504c.315 2.798-2.202 3.128-2.202 3.128m6.692 10.346l-3.968-6.984s-.465-.62.274-1.077c.738-.454 1.397-1.202 1.397-1.202s2.264-2.576.808-6.43c-1.97-5.007-9.625-3.398-9.625-3.398l-1.656.14s-.486.002-1.338.08c-1.812.206-1.909 1.4-1.909 1.4l1.995 19.561s.266 1.34 1.848 1.164c1.583-.18 1.494-1.587 1.494-1.587l-.846-8.346.217-.044 1.475-.18c1.796-.239 2.264.51 2.264.51l4.39 7.843s1.332 1.313 2.503.368c1.17-.945.677-1.818.677-1.818M53.372 26.081c-.846-.073-7.269-.496-7.269-.496s-1.225-.117-1.445.966c-.221 1.085-.265 4.485-.265 4.485s.051.363.692.4c.514.03 9.478.67 9.478.67s1.286.212 1.194 1.774c-.092 1.56-1.531 1.276-1.531 1.276l-11.91-.793s-1.383-.104-1.32-1.154l1.216-18.334s.241-1.8 2.41-1.739c2.168.061 10.587.827 10.587.827s1.3.39 1.126 1.79c-.172 1.401-1.587 1.474-1.587 1.474l-8.724-.537s-.54.035-.643.656c-.104.62-.309 4.079-.309 4.079s-.122.842.684.937c.8.093 7.752.682 7.752.682s1.282.165 1.213 1.533c-.103 1.556-1.349 1.504-1.349 1.504M17.714 31.85l-3.203.435-1.624.117-.569-6.46 1.7-.193c1.59-.113 3.293-.005 3.293-.005s2.298.025 2.583 2.872c.285 2.848-2.18 3.234-2.18 3.234zm-6.203-15.08l1.57-.158s1.199-.073 2.468.1c1.878.463 2.56 1.483 2.68 2.678.12 1.194-.61 2.706-1.626 2.992-1.014.288-2.881.404-2.881.404l-1.673.1-.538-6.116zm11.736 12.207c-.393-3.927-2.783-5.567-2.783-5.567s1.388-1.646 1.041-4.65c-.912-6.564-8.693-5.298-8.693-5.298l-3.23.272c-1.92.217-1.505 3.094-1.505 3.094s1.448 16.11 1.618 17.806c.17 1.697 3.483 1.072 3.483 1.072l1.652-.228 3.834-.385c1.791-.179 4.976-2.19 4.583-6.116zM65.238 27.263l-2.52.281s-.747.109-.489-.648l1.242-5.737 2.28 5.347s.329.664-.513.757m7.24 6.045s-7.495-17.181-7.997-18.215c-.5-1.033-1.286-1.156-2.016-1.075-.728.081-1.247 1.104-1.247 1.104l-4.099 19.98s-.076 1.253 1.193 1.573c1.354.34 1.885-.897 1.885-.897s1.09-3.929 1.2-4.38c.107-.452.737-.627.737-.627s4.278-.37 4.802-.395c.524-.022.738.464.738.464l1.926 3.894s.666.946 2.045.406c1.38-.54.833-1.832.833-1.832M74.944 11.215s.13-1.141 1.746-.991c1.651.153 1.558 1.274 1.558 1.274l-.637 6.122s.09 1.03 1.004.582c.916-.452 9.264-6.766 9.264-6.766s1.246-.513 2.068.67c.821 1.18-.363 2.154-.363 2.154l-7.225 5.37s-.359.224-.004.78c.356.556 5.851 10.97 5.851 10.97s.54 1.202-.81 1.845c-1.352.644-2.185-.412-2.185-.412l-5.765-10.392s-.289-.528-.616-.255c-.328.272-1.588 1.308-1.588 1.308s-.27.16-.323.726c-.052.565-.812 7.002-.812 7.002s-.193 1.332-1.947 1.04c-1.438-.178-1.31-1.296-1.31-1.296l2.094-19.731z" fill="#FFF"/></g></svg>