<svg fill="#dd4b39" height="512" viewBox="0 0 24 24" width="512" xmlns="http://www.w3.org/2000/svg"><path d="M12 17c-1.654 0-3-1.346-3-3s1.346-3 3-3 3 1.346 3 3-1.346 3-3 3z"/><path d="M17.991 17.71a1.002 1.002 0 01-.665-1.748A7.968 7.968 0 0020 10c0-4.411-3.589-8-8-8s-8 3.589-8 8a7.97 7.97 0 002.673 5.962 1 1 0 11-1.328 1.496A9.975 9.975 0 012 10C2 4.486 6.486 0 12 0s10 4.486 10 10a9.973 9.973 0 01-3.346 7.458.996.996 0 01-.663.252z"/><path d="M15.969 10.51a.999.999 0 01-.991-.879A3 3 0 0012 7a3 3 0 00-2.978 2.63 1 1 0 01-1.985-.241A5 5 0 0112 5a5 5 0 014.963 4.389 1 1 0 01-.994 1.121zM17.25 24H6.75a.75.75 0 01-.75-.75v-1.5A2.752 2.752 0 018.75 19h6.5A2.752 2.752 0 0118 21.75v1.5a.75.75 0 01-.75.75z"/></svg>